<svg id="kity_svg_2" xmlns="http://www.w3.org/2000/svg" xmlns:xlink="http://www.w3.org/1999/xlink" width="2055" height="1439" contenteditable="true" style="font-family: Arial, &quot;Microsoft Yahei&quot;,  &quot;Heiti SC&quot;; background: #3A4144 url(themes/default/images/grid.png) repeat" viewBox="-598 -316 2055 1439"><defs id="kity_defs_3"><marker id="kity_marker_0" orient="auto" refX="6" refY="0" viewBox="-7 -7 14 14" markerWidth="7" markerHeight="7" markerUnits="userSpaceOnUse"><path id="kity_path_1" fill="white" stroke="none" d="M6,0A6,6,0,1,1,-6,0A6,6,0,1,1,6,0"></path></marker></defs><g id="kity_g_4" transform="translate(0.5, 0.5)"><g id="minder_1" text-rendering="optimize-speed" transform="matrix( 1 0 0 1 761.9999999999998 279 )"><g id="minder_connect_group_1"><path id="kity_path_360" fill="none" stroke="white" stroke-width="2" d="M74.5 0.5A217.5,114.5,0,0,1,292 -114" marker-end="url(#kity_marker_0)"></path><path id="kity_path_374" fill="none" stroke="white" stroke-width="2" d="M430 -113.5C445,-113.5,445,-97.5,460 -97.5L594 -97.5"></path><path id="kity_path_390" fill="none" stroke="white" stroke-width="2" d="M74.5 0.5A217.5,19.5,0,0,1,292 -19" marker-end="url(#kity_marker_0)"></path><path id="kity_path_410" fill="none" stroke="white" stroke-width="2" d="M420 -18.5C435,-18.5,435,-30.5,450 -30.5L525 -30.5"></path><path id="kity_path_432" fill="none" stroke="white" stroke-width="2" d="M74.5 0.5A217.5,75.5,0,0,0,292 76" marker-end="url(#kity_marker_0)"></path><path id="kity_path_452" fill="none" stroke="white" stroke-width="2" d="M74.5 0.5A217.5,265.5,0,0,0,292 266" marker-end="url(#kity_marker_0)"></path><path id="kity_path_520" fill="none" stroke="white" stroke-width="2" d="M420 -18.5C435,-18.5,435,24.5,450 24.5L634 24.5"></path><path id="kity_path_710" fill="none" stroke="white" stroke-width="2" d="M74.5 0.5A217.5,170.5,0,0,0,292 171" marker-end="url(#kity_marker_0)"></path><path id="kity_path_872" fill="none" stroke="white" stroke-width="2" d="M74.5 0.5A217.5,560.5,0,0,0,-143 -560" marker-end="url(#kity_marker_0)"></path><path id="kity_path_1212" fill="none" stroke="white" stroke-width="2" d="M74.5 0.5A217.5,490.5,0,0,0,-143 -490" marker-end="url(#kity_marker_0)"></path><path id="kity_path_1332" fill="none" stroke="white" stroke-width="2" d="M-319 -489.5C-334,-489.5,-334,-473.5,-349 -473.5L-639 -473.5"></path><path id="kity_path_1424" fill="none" stroke="white" stroke-width="2" d="M74.5 0.5A249.5,407.5,0,0,0,-175 -407" marker-end="url(#kity_marker_0)"></path><path id="kity_path_2194" fill="none" stroke="white" stroke-width="2" d="M-327 -26.5C-342,-26.5,-342,-176.5,-357 -176.5L-472 -176.5"></path><path id="kity_path_2264" fill="none" stroke="white" stroke-width="2" d="M426 171.5C441,171.5,441,159.5,456 159.5L639 159.5"></path><path id="kity_path_2350" fill="none" stroke="white" stroke-width="2" d="M426 171.5C441,171.5,441,214.5,456 214.5L675 214.5"></path><path id="kity_path_2488" fill="none" stroke="white" stroke-width="2" d="M384 76.5C399,76.5,399,92.5,414 92.5L483 92.5"></path><path id="kity_path_2579" fill="none" stroke="white" stroke-width="2" d="M-478 -559.5C-493,-559.5,-493,-543.5,-508 -543.5L-705 -543.5"></path><path id="kity_path_2625" fill="none" stroke="white" stroke-width="2" d="M395 266.5C410,266.5,410,282.5,425 282.5L551 282.5"></path><path id="kity_path_2670" fill="none" stroke="white" stroke-width="2" d="M-460 -406.5C-475,-406.5,-475,-418.5,-490 -418.5L-772 -418.5"></path><path id="kity_path_2671" fill="none" stroke="white" stroke-width="2" d="M-460 -406.5C-475,-406.5,-475,-363.5,-490 -363.5L-766 -363.5"></path><path id="kity_path_3926" fill="none" stroke="white" stroke-width="2" marker-end="url(#kity_marker_0)" d="M74.5 0.5A217.5,27.5,0,0,0,-143 -27"></path><path id="kity_path_4019" fill="none" stroke="white" stroke-width="2" d="M-472 -176.5C-487,-176.5,-487,-286.5,-502 -286.5L-652 -286.5"></path><path id="kity_path_4020" fill="none" stroke="white" stroke-width="2" d="M-472 -176.5C-487,-176.5,-487,-231.5,-502 -231.5L-717 -231.5"></path><path id="kity_path_4021" fill="none" stroke="white" stroke-width="2" d="M-472 -176.5C-487,-176.5,-487,-176.5,-502 -176.5L-757 -176.5"></path><path id="kity_path_4022" fill="none" stroke="white" stroke-width="2" d="M-472 -176.5C-487,-176.5,-487,-121.5,-502 -121.5L-803 -121.5"></path><path id="kity_path_4023" fill="none" stroke="white" stroke-width="2" d="M-472 -176.5C-487,-176.5,-487,-66.5,-502 -66.5L-761 -66.5"></path><path id="kity_path_4106" fill="none" stroke="white" stroke-width="2" d="M-327 -26.5C-342,-26.5,-342,127.5,-357 127.5L-478 127.5"></path><path id="kity_path_4225" fill="none" stroke="white" stroke-width="2" d="M-478 127.5C-493,127.5,-493,16.5,-508 16.5L-679 16.5"></path><path id="kity_path_4319" fill="none" stroke="white" stroke-width="2" d="M-679 16.5C-694,16.5,-694,-11.5,-709 -11.5L-1148 -11.5"></path><path id="kity_path_4626" fill="none" stroke="white" stroke-width="2" d="M-679 16.5C-694,16.5,-694,43.5,-709 43.5L-827 43.5"></path><path id="kity_path_4819" fill="none" stroke="white" stroke-width="2" d="M-478 127.5C-493,127.5,-493,182.5,-508 182.5L-662 182.5"></path><path id="kity_path_4922" fill="none" stroke="white" stroke-width="2" marker-end="url(#kity_marker_0)" d="M74.5 0.5A217.5,264.5,0,0,1,292 -264"></path><path id="kity_path_6294" fill="none" stroke="white" stroke-width="2" d="M376 -263.5C391,-263.5,391,-330.5,406 -330.5L670 -330.5"></path><path id="kity_path_6295" fill="none" stroke="white" stroke-width="2" d="M376 -263.5C391,-263.5,391,-275.5,406 -275.5L558 -275.5"></path><path id="kity_path_6296" fill="none" stroke="white" stroke-width="2" d="M376 -263.5C391,-263.5,391,-220.5,406 -220.5L572 -220.5"></path><path id="kity_path_6297" fill="none" stroke="white" stroke-width="2" d="M376 -263.5C391,-263.5,391,-165.5,406 -165.5L587 -165.5"></path><path id="kity_path_6410" fill="none" stroke="white" stroke-width="2" d="M-897 210.5C-912,210.5,-912,154.5,-927 154.5L-1019 154.5"></path><path id="kity_path_6531" fill="none" stroke="white" stroke-width="2" d="M-897 210.5C-912,210.5,-912,265.5,-927 265.5L-1029 265.5"></path><path id="kity_path_6655" fill="none" stroke="white" stroke-width="2" d="M-662 182.5C-677,182.5,-677,98.5,-692 98.5L-1093 98.5"></path><path id="kity_path_6862" fill="none" stroke="white" stroke-width="2" d="M-662 182.5C-677,182.5,-677,210.5,-692 210.5L-897 210.5"></path><path id="kity_path_7156" fill="none" stroke="white" stroke-width="2" d="M-897 210.5C-912,210.5,-912,210.5,-927 210.5L-1049 210.5"></path><path id="kity_path_7373" fill="none" stroke="white" stroke-width="2" d="M-1019 154.5C-1034,154.5,-1034,154.5,-1049 154.5L-1291 154.5"></path><path id="kity_path_7595" fill="none" stroke="white" stroke-width="2" d="M-1049 210.5C-1064,210.5,-1064,210.5,-1079 210.5L-1333 210.5"></path><path id="kity_path_7822" fill="none" stroke="white" stroke-width="2" d="M-1029 265.5C-1044,265.5,-1044,265.5,-1059 265.5L-1269 265.5"></path><path id="kity_path_7964" fill="none" stroke="white" stroke-width="2" marker-end="url(#kity_marker_0)" d="M74.5 0.5A217.5,560.5,0,0,1,-143 561"></path><path id="kity_path_8110" fill="none" stroke="white" stroke-width="2" d="M-339 561.5C-354,561.5,-354,357.5,-369 357.5L-702 357.5"></path><path id="kity_path_8305" fill="none" stroke="white" stroke-width="2" d="M-702 357.5C-717,357.5,-717,329.5,-732 329.5L-786 329.5"></path><path id="kity_path_8456" fill="none" stroke="white" stroke-width="2" d="M-702 357.5C-717,357.5,-717,384.5,-732 384.5L-1005 384.5"></path><path id="kity_path_8659" fill="none" stroke="white" stroke-width="2" d="M-339 561.5C-354,561.5,-354,522.5,-369 522.5L-861 522.5"></path><path id="kity_path_9016" fill="none" stroke="white" stroke-width="2" d="M-861 522.5C-876,522.5,-876,439.5,-891 439.5L-969 439.5"></path><path id="kity_path_9176" fill="none" stroke="white" stroke-width="2" d="M-861 522.5C-876,522.5,-876,494.5,-891 494.5L-969 494.5"></path><path id="kity_path_9339" fill="none" stroke="white" stroke-width="2" d="M-861 522.5C-876,522.5,-876,604.5,-891 604.5L-1340 604.5"></path><path id="kity_path_10141" fill="none" stroke="white" stroke-width="2" d="M-861 522.5C-876,522.5,-876,549.5,-891 549.5L-1005 549.5"></path><path id="kity_path_10418" fill="none" stroke="white" stroke-width="2" d="M-339 561.5C-354,561.5,-354,687.5,-369 687.5L-511 687.5"></path><path id="kity_path_10590" fill="none" stroke="white" stroke-width="2" d="M-511 687.5C-526,687.5,-526,659.5,-541 659.5L-761 659.5"></path><path id="kity_path_10877" fill="none" stroke="white" stroke-width="2" d="M-511 687.5C-526,687.5,-526,714.5,-541 714.5L-655 714.5"></path><path id="kity_path_11055" fill="none" stroke="white" stroke-width="2" d="M-339 561.5C-354,561.5,-354,797.5,-369 797.5L-646 797.5"></path><path id="kity_path_11236" fill="none" stroke="white" stroke-width="2" d="M-646 797.5C-661,797.5,-661,769.5,-676 769.5L-886 769.5"></path><path id="kity_path_11479" fill="none" stroke="white" stroke-width="2" d="M-646 797.5C-661,797.5,-661,824.5,-676 824.5L-754 824.5"></path></g><g id="kity_g_9" display="none"><path id="kity_path_10" fill="rgba(0, 255, 0, .5)" stroke="none" d="M-959,551h68v15h-68z"></path><path id="kity_path_11" fill="none" stroke="#0f0" d="M-959,551L-891,551" stroke-width="1"></path></g><g id="minder_node_1" transform="matrix( 1 0 0 1 0 0 )"><path id="kity_path_181" fill="rgba(0, 0, 0, .25)" stroke="none" d="M9,-23h139a30,30,0,0,1,30,30v-3a30,30,0,0,1,-30,30h-139a30,30,0,0,1,-30,-30v3a30,30,0,0,1,30,-30z"></path><path id="node_outline_1" fill="rgb(254, 219, 0)" stroke="rgb(254, 219, 0)" d="M5,-28h139a30,30,0,0,1,30,30v-3a30,30,0,0,1,-30,30h-139a30,30,0,0,1,-30,-30v3a30,30,0,0,1,30,-30z"></path><text id="node_text_1" text-rendering="inherit" dy="7.5" fill="black" font-size="24" style="cursor: default;">Handlebars.js</text><path id="_kity_selection" fill="rgb(27,171,255)" stroke="none" d="M47.5,-8.5h2v17h-2z" opacity="0.5" style="cursor: text; display: none;"></path></g><g id="minder_node_280" transform="matrix( 1 0 0 1 314 -114 )"><path id="kity_path_366" fill="rgba(0, 0, 0, .25)" stroke="none" d="M-6,-10h106a10,10,0,0,1,10,10v10a10,10,0,0,1,-10,10h-106a10,10,0,0,1,-10,-10v-10a10,10,0,0,1,10,-10z"></path><g id="node_expander_10" transform="translate( 111 0 )" style="cursor: pointer;"><path id="kity_path_364" fill="white" stroke="gray" d="M5,0A5,5,0,1,1,-5,0A5,5,0,1,1,5,0"></path><path id="kity_path_365" fill="none" stroke="black" d="M-3.5,0L3.5,0"></path></g><path id="node_outline_11" fill="#a4c5c0" stroke="#a4c5c0" d="M-10,-15h106a10,10,0,0,1,10,10v10a10,10,0,0,1,-10,10h-106a10,10,0,0,1,-10,-10v-10a10,10,0,0,1,10,-10z" stroke-width="1"></path><text id="node_text_11" text-rendering="inherit" dy="6" fill="#333" font-size="16" style="cursor: text;">Expressions</text></g><g id="minder_node_287" transform="matrix( 1 0 0 1 470 -114 )"><g id="node_expander_11" transform="translate( 0 0 )" style="cursor: pointer;" display="none"><path id="kity_path_378" fill="white" stroke="gray" d="M5,0A5,5,0,1,1,-5,0A5,5,0,1,1,5,0"></path><path id="kity_path_379" fill="none" stroke="black"></path></g><path id="node_outline_12" fill="none" stroke="none" d="M-5,-12h114a5,5,0,0,1,5,5v15a5,5,0,0,1,-5,5h-114a5,5,0,0,1,-5,-5v-15a5,5,0,0,1,5,-5z"></path><text id="node_text_12" text-rendering="inherit" dy="4.5" fill="white" font-size="12" style="cursor: default;">&lt;div&gt; {{ xxx }} &lt;/div&gt;</text></g><g id="minder_node_297" transform="matrix( 1 0 0 1 314 -19 )"><path id="kity_path_396" fill="rgba(0, 0, 0, .25)" stroke="none" d="M-6,-10h96a10,10,0,0,1,10,10v10a10,10,0,0,1,-10,10h-96a10,10,0,0,1,-10,-10v-10a10,10,0,0,1,10,-10z"></path><g id="node_expander_12" transform="translate( 101 0 )" style="cursor: pointer;"><path id="kity_path_394" fill="white" stroke="gray" d="M5,0A5,5,0,1,1,-5,0A5,5,0,1,1,5,0"></path><path id="kity_path_395" fill="none" stroke="black" d="M-3.5,0L3.5,0"></path></g><path id="node_outline_13" fill="#a4c5c0" stroke="#a4c5c0" d="M-10,-15h96a10,10,0,0,1,10,10v10a10,10,0,0,1,-10,10h-96a10,10,0,0,1,-10,-10v-10a10,10,0,0,1,10,-10z" stroke-width="1"></path><text id="node_text_13" text-rendering="inherit" dy="6" fill="#333" font-size="16" style="cursor: text;">Comments</text></g><g id="minder_node_310" transform="matrix( 1 0 0 1 460 -47 )"><g id="node_expander_13" transform="translate( 0 0 )" style="cursor: pointer;" display="none"><path id="kity_path_414" fill="white" stroke="gray" d="M5,0A5,5,0,1,1,-5,0A5,5,0,1,1,5,0"></path><path id="kity_path_415" fill="none" stroke="black"></path></g><path id="node_outline_14" fill="none" stroke="none" d="M-5,-12h55a5,5,0,0,1,5,5v15a5,5,0,0,1,-5,5h-55a5,5,0,0,1,-5,-5v-15a5,5,0,0,1,5,-5z"></path><text id="node_text_14" text-rendering="inherit" dy="4.5" fill="white" font-size="12">{{! xxxx }}</text></g><g id="minder_node_394" transform="matrix( 1 0 0 1 460 8 )"><g id="node_expander_17" transform="translate( 0 0 )" style="cursor: pointer;" display="none"><path id="kity_path_524" fill="white" stroke="gray" d="M5,0A5,5,0,1,1,-5,0A5,5,0,1,1,5,0"></path><path id="kity_path_525" fill="none" stroke="black"></path></g><path id="node_outline_18" fill="none" stroke="none" d="M-5,-12h164a5,5,0,0,1,5,5v15a5,5,0,0,1,-5,5h-164a5,5,0,0,1,-5,-5v-15a5,5,0,0,1,5,-5z"></path><text id="node_text_18" text-rendering="inherit" dy="4.5" fill="white" font-size="12" style="cursor: text;">&lt;!-- &#xa0;xxx --&gt; &#xa0;(会输出到 HTML)</text></g><g id="minder_node_326" transform="matrix( 1 0 0 1 314 76 )" opacity="1"><path id="kity_path_438" fill="rgba(0, 0, 0, .25)" stroke="none" d="M-6,-10h60a10,10,0,0,1,10,10v10a10,10,0,0,1,-10,10h-60a10,10,0,0,1,-10,-10v-10a10,10,0,0,1,10,-10z"></path><g id="node_expander_14" transform="translate( 65 0 )" style="cursor: pointer;"><path id="kity_path_436" fill="white" stroke="gray" d="M5,0A5,5,0,1,1,-5,0A5,5,0,1,1,5,0"></path><path id="kity_path_437" fill="none" stroke="black" d="M-3.5,0L3.5,0"></path></g><path id="node_outline_15" fill="#a4c5c0" stroke="#a4c5c0" d="M-10,-15h60a10,10,0,0,1,10,10v10a10,10,0,0,1,-10,10h-60a10,10,0,0,1,-10,-10v-10a10,10,0,0,1,10,-10z" stroke-width="1"></path><text id="node_text_15" text-rendering="inherit" dy="6" fill="#333" font-size="16" style="cursor: default;">Paths</text></g><g id="minder_node_715" transform="matrix( 1 0 0 1 -448 -560 )" opacity="1"><path id="kity_path_878" fill="rgba(0, 0, 0, .25)" stroke="none" d="M-6,-10h303a10,10,0,0,1,10,10v10a10,10,0,0,1,-10,10h-303a10,10,0,0,1,-10,-10v-10a10,10,0,0,1,10,-10z"></path><g id="node_expander_22" transform="translate( -25 0 )" style="cursor: pointer;"><path id="kity_path_876" fill="white" stroke="gray" d="M5,0A5,5,0,1,1,-5,0A5,5,0,1,1,5,0"></path><path id="kity_path_877" fill="none" stroke="black" d="M-3.5,0L3.5,0"></path></g><path id="node_outline_23" fill="#a4c5c0" stroke="#a4c5c0" d="M-10,-15h303a10,10,0,0,1,10,10v10a10,10,0,0,1,-10,10h-303a10,10,0,0,1,-10,-10v-10a10,10,0,0,1,10,-10z" stroke-width="1"></path><text id="node_text_23" text-rendering="inherit" dy="6" fill="#333" font-size="16" style="cursor: default;">Context ("object data", "data" or "object")</text></g><g id="minder_node_1042" transform="matrix( 1 0 0 1 -289 -490 )"><path id="kity_path_1218" fill="rgba(0, 0, 0, .25)" stroke="none" d="M-6,-10h144a10,10,0,0,1,10,10v10a10,10,0,0,1,-10,10h-144a10,10,0,0,1,-10,-10v-10a10,10,0,0,1,10,-10z"></path><g id="node_expander_24" transform="translate( -25 0 )" style="cursor: pointer;"><path id="kity_path_1216" fill="white" stroke="gray" d="M5,0A5,5,0,1,1,-5,0A5,5,0,1,1,5,0"></path><path id="kity_path_1217" fill="none" stroke="black" d="M-3.5,0L3.5,0"></path></g><path id="node_outline_25" fill="#a4c5c0" stroke="#a4c5c0" d="M-10,-15h144a10,10,0,0,1,10,10v10a10,10,0,0,1,-10,10h-144a10,10,0,0,1,-10,-10v-10a10,10,0,0,1,10,-10z"></path><text id="node_text_25" text-rendering="inherit" dy="6" fill="#333" font-size="16" style="cursor: default;">Triple Stash {{{ }}}&#xa0;</text></g><g id="minder_node_1155" transform="matrix( 1 0 0 1 -619 -490 )"><g id="node_expander_25" transform="translate( 0 0 )" style="cursor: pointer;" display="none"><path id="kity_path_1336" fill="white" stroke="gray" d="M5,0A5,5,0,1,1,-5,0A5,5,0,1,1,5,0"></path><path id="kity_path_1337" fill="none" stroke="black"></path></g><path id="node_outline_26" fill="none" stroke="none" d="M-5,-12h270a5,5,0,0,1,5,5v15a5,5,0,0,1,-5,5h-270a5,5,0,0,1,-5,-5v-15a5,5,0,0,1,5,-5z"></path><text id="node_text_26" text-rendering="inherit" dy="4.5" fill="white" font-size="12" style="cursor: text;">不对输出的 HTML 进行转义&#xa0;(Non-escape HTML)</text></g><g id="minder_node_1241" transform="matrix( 1 0 0 1 -430 -407 )" opacity="1"><path id="kity_path_1430" fill="rgba(0, 0, 0, .25)" stroke="none" d="M-6,-10h253a10,10,0,0,1,10,10v10a10,10,0,0,1,-10,10h-253a10,10,0,0,1,-10,-10v-10a10,10,0,0,1,10,-10z"></path><g id="node_expander_26" transform="translate( -25 0 )" style="cursor: pointer;"><path id="kity_path_1428" fill="white" stroke="gray" d="M5,0A5,5,0,1,1,-5,0A5,5,0,1,1,5,0"></path><path id="kity_path_1429" fill="none" stroke="black" d="M-3.5,0L3.5,0"></path></g><path id="node_outline_27" fill="#a4c5c0" stroke="#a4c5c0" d="M-10,-15h253a10,10,0,0,1,10,10v10a10,10,0,0,1,-10,10h-253a10,10,0,0,1,-10,-10v-10a10,10,0,0,1,10,-10z"></path><text id="node_text_27" text-rendering="inherit" dy="6" fill="#333" font-size="16" style="cursor: default;">Partials&#xa0;(sub-templates)&#xa0;模板嵌套</text></g><g id="minder_node_566" transform="matrix( 1 0 0 1 314 171 )" opacity="1"><path id="kity_path_788" fill="rgba(0, 0, 0, .25)" stroke="none" d="M-6,-10h102a10,10,0,0,1,10,10v10a10,10,0,0,1,-10,10h-102a10,10,0,0,1,-10,-10v-10a10,10,0,0,1,10,-10z"></path><g id="node_expander_20" transform="translate( 107 0 )" style="cursor: pointer;"><path id="kity_path_714" fill="white" stroke="gray" d="M5,0A5,5,0,1,1,-5,0A5,5,0,1,1,5,0"></path><path id="kity_path_715" fill="none" stroke="black" d="M-3.5,0L3.5,0"></path></g><path id="node_outline_21" fill="#a4c5c0" stroke="#a4c5c0" d="M-10,-15h102a10,10,0,0,1,10,10v10a10,10,0,0,1,-10,10h-102a10,10,0,0,1,-10,-10v-10a10,10,0,0,1,10,-10z" stroke-width="1"></path><text id="node_text_21" text-rendering="inherit" dy="6" fill="#333" font-size="16" style="cursor: text;">Parent Path</text></g><g id="minder_node_675" transform="matrix( 1 0 0 1 466 143 )"><g id="node_expander_21" transform="translate( 0 0 )" style="cursor: pointer;" display="none"><path id="kity_path_830" fill="white" stroke="gray" d="M5,0A5,5,0,1,1,-5,0A5,5,0,1,1,5,0"></path><path id="kity_path_831" fill="none" stroke="black"></path></g><path id="node_outline_22" fill="none" stroke="none" d="M-5,-12h163a5,5,0,0,1,5,5v15a5,5,0,0,1,-5,5h-163a5,5,0,0,1,-5,-5v-15a5,5,0,0,1,5,-5z"></path><text id="node_text_22" text-rendering="inherit" dy="4.5" fill="white" font-size="12" style="cursor: text;">{{ ../ }}&#xa0;&#xa0;(访问当前对象的双亲)</text></g><g id="minder_node_2126" transform="matrix( 1 0 0 1 466 198 )"><g id="node_expander_32" transform="translate( 0 0 )" style="cursor: pointer;" display="none"><path id="kity_path_2354" fill="white" stroke="gray" d="M5,0A5,5,0,1,1,-5,0A5,5,0,1,1,5,0"></path><path id="kity_path_2355" fill="none" stroke="black"></path></g><path id="node_outline_33" fill="none" stroke="none" d="M-5,-12h199a5,5,0,0,1,5,5v15a5,5,0,0,1,-5,5h-199a5,5,0,0,1,-5,-5v-15a5,5,0,0,1,5,-5z"></path><text id="node_text_33" text-rendering="inherit" dy="4.5" fill="white" font-size="12" style="cursor: text;">{{ ../xxx }}&#xa0;&#xa0;(访问当前对象的 xxx 兄弟)</text></g><g id="minder_node_499" transform="matrix( 1 0 0 1 424 76 )"><g id="node_expander_19" transform="translate( 0 0 )" style="cursor: pointer;" display="none"><path id="kity_path_641" fill="white" stroke="gray" d="M5,0A5,5,0,1,1,-5,0A5,5,0,1,1,5,0"></path><path id="kity_path_642" fill="none" stroke="black"></path></g><path id="node_outline_20" fill="none" stroke="none" d="M-5,-12h49a5,5,0,0,1,5,5v15a5,5,0,0,1,-5,5h-49a5,5,0,0,1,-5,-5v-15a5,5,0,0,1,5,-5z"></path><text id="node_text_20" text-rendering="inherit" dy="4.5" fill="white" font-size="12" style="cursor: text;" opacity="1">{{ a.b }}</text></g><g id="minder_node_786" transform="matrix( 1 0 0 1 -685 -560 )"><g id="node_expander_23" transform="translate( 0 0 )" style="cursor: pointer;" display="none"><path id="kity_path_954" fill="white" stroke="gray" d="M5,0A5,5,0,1,1,-5,0A5,5,0,1,1,5,0"></path><path id="kity_path_955" fill="none" stroke="black"></path></g><path id="node_outline_24" fill="none" stroke="none" d="M-5,-12h177a5,5,0,0,1,5,5v15a5,5,0,0,1,-5,5h-177a5,5,0,0,1,-5,-5v-15a5,5,0,0,1,5,-5z"></path><text id="node_text_24" text-rendering="inherit" dy="4.5" fill="white" font-size="12" style="cursor: text;">被传到 Handlebars 函数的对象</text></g><g id="minder_node_1631" transform="matrix( 1 0 0 1 -752 -435 )"><g id="node_expander_29" transform="translate( 0 0 )" style="cursor: pointer;" display="none"><path id="kity_path_1839" fill="white" stroke="gray" d="M5,0A5,5,0,1,1,-5,0A5,5,0,1,1,5,0"></path><path id="kity_path_1840" fill="none" stroke="black"></path></g><path id="node_outline_30" fill="none" stroke="none" d="M-5,-12h262a5,5,0,0,1,5,5v15a5,5,0,0,1,-5,5h-262a5,5,0,0,1,-5,-5v-15a5,5,0,0,1,5,-5z"></path><text id="node_text_30" text-rendering="inherit" dy="4.5" fill="white" font-size="12" style="cursor: text;">Handlebars.registerPartial("a", $("#id").html());</text></g><g id="minder_node_1752" transform="matrix( 1 0 0 1 -746 -380 )"><g id="node_expander_30" transform="translate( 0 0 )" style="cursor: pointer;" display="none"><path id="kity_path_1966" fill="white" stroke="gray" d="M5,0A5,5,0,1,1,-5,0A5,5,0,1,1,5,0"></path><path id="kity_path_1967" fill="none" stroke="black"></path></g><path id="node_outline_31" fill="none" stroke="none" d="M-5,-12h256a5,5,0,0,1,5,5v15a5,5,0,0,1,-5,5h-256a5,5,0,0,1,-5,-5v-15a5,5,0,0,1,5,-5z"></path><text id="node_text_31" text-rendering="inherit" dy="4.5" fill="white" font-size="12" style="cursor: text;"> 在其它模板中用 {{&gt; a }} 即可将上面的内容注入</text></g><g id="minder_node_339" transform="matrix( 1 0 0 1 314 266 )" opacity="1"><path id="kity_path_458" fill="rgba(0, 0, 0, .25)" stroke="none" d="M-6,-10h71a10,10,0,0,1,10,10v10a10,10,0,0,1,-10,10h-71a10,10,0,0,1,-10,-10v-10a10,10,0,0,1,10,-10z"></path><g id="node_expander_15" transform="translate( 76 0 )" style="cursor: pointer;"><path id="kity_path_456" fill="white" stroke="gray" d="M5,0A5,5,0,1,1,-5,0A5,5,0,1,1,5,0"></path><path id="kity_path_457" fill="none" stroke="black" d="M-3.5,0L3.5,0"></path></g><path id="node_outline_16" fill="#a4c5c0" stroke="#a4c5c0" d="M-10,-15h71a10,10,0,0,1,10,10v10a10,10,0,0,1,-10,10h-71a10,10,0,0,1,-10,-10v-10a10,10,0,0,1,10,-10z" stroke-width="1"></path><text id="node_text_16" text-rendering="inherit" dy="6" fill="#333" font-size="16" style="cursor: text;">Blocks&#xa0;</text></g><g id="minder_node_458" transform="matrix( 1 0 0 1 435 266 )"><g id="node_expander_18" transform="translate( 0 0 )" style="cursor: pointer;" display="none"><path id="kity_path_594" fill="white" stroke="gray" d="M5,0A5,5,0,1,1,-5,0A5,5,0,1,1,5,0"></path><path id="kity_path_595" fill="none" stroke="black"></path></g><path id="node_outline_19" fill="none" stroke="none" d="M-5,-12h106a5,5,0,0,1,5,5v15a5,5,0,0,1,-5,5h-106a5,5,0,0,1,-5,-5v-15a5,5,0,0,1,5,-5z"></path><text id="node_text_19" text-rendering="inherit" dy="4.5" fill="white" font-size="12" opacity="1" style="cursor: text;">{{#xxx}} ...... {{/xxx}}</text></g><g id="minder_node_1978" transform="matrix( 1 0 0 1 -452 -193 )" opacity="1"><path id="kity_path_2200" fill="rgba(0, 0, 0, .25)" stroke="none" d="M-6,-10h125a10,10,0,0,1,10,10v10a10,10,0,0,1,-10,10h-125a10,10,0,0,1,-10,-10v-10a10,10,0,0,1,10,-10z" display="none"></path><g id="node_expander_31" transform="translate( -15 0.5 )" style="cursor: pointer;"><path id="kity_path_2198" fill="white" stroke="gray" d="M5,0A5,5,0,1,1,-5,0A5,5,0,1,1,5,0"></path><path id="kity_path_2199" fill="none" stroke="black" d="M-3.5,0L3.5,0"></path></g><path id="node_outline_32" fill="none" stroke="none" d="M-5,-12h95a5,5,0,0,1,5,5v15a5,5,0,0,1,-5,5h-95a5,5,0,0,1,-5,-5v-15a5,5,0,0,1,5,-5z"></path><text id="node_text_32" text-rendering="inherit" dy="4.5" fill="white" font-size="12" style="cursor: default;">Built-in&#xa0;Helpers</text></g><g id="minder_node_3646" transform="matrix( 1 0 0 1 -297 -27 )"><path id="kity_path_3932" fill="rgba(0, 0, 0, .25)" stroke="none" d="M-6,-10h152a10,10,0,0,1,10,10v10a10,10,0,0,1,-10,10h-152a10,10,0,0,1,-10,-10v-10a10,10,0,0,1,10,-10z"></path><g id="node_expander_40" transform="translate( -25 0 )" style="cursor: pointer;"><path id="kity_path_3930" fill="white" stroke="gray" d="M5,0A5,5,0,1,1,-5,0A5,5,0,1,1,5,0"></path><path id="kity_path_3931" fill="none" stroke="black" d="M-3.5,0L3.5,0"></path></g><path id="node_outline_41" fill="#a4c5c0" stroke="#a4c5c0" d="M-10,-15h152a10,10,0,0,1,10,10v10a10,10,0,0,1,-10,10h-152a10,10,0,0,1,-10,-10v-10a10,10,0,0,1,10,-10z"></path><text id="node_text_41" text-rendering="inherit" dy="6" fill="#333" font-size="16" style="cursor: default;">Helpers (处理逻辑)</text></g><g id="minder_node_2479" transform="matrix( 1 0 0 1 -632 -303 )"><g id="node_expander_33" transform="translate( 0 0 )" style="cursor: pointer;" display="none"><path id="kity_path_2721" fill="white" stroke="gray" d="M5,0A5,5,0,1,1,-5,0A5,5,0,1,1,5,0"></path><path id="kity_path_2722" fill="none" stroke="black"></path></g><path id="node_outline_34" fill="none" stroke="none" d="M-5,-12h130a5,5,0,0,1,5,5v15a5,5,0,0,1,-5,5h-130a5,5,0,0,1,-5,-5v-15a5,5,0,0,1,5,-5z"></path><text id="node_text_34" text-rendering="inherit" dy="4.5" fill="white" font-size="12" style="cursor: default;" opacity="1">{{#each}} ...... {{/each}}</text></g><g id="minder_node_2687" transform="matrix( 1 0 0 1 -697 -248 )"><g id="node_expander_34" transform="translate( 0 0 )" style="cursor: pointer;" display="none"><path id="kity_path_2935" fill="white" stroke="gray" d="M5,0A5,5,0,1,1,-5,0A5,5,0,1,1,5,0"></path><path id="kity_path_2936" fill="none" stroke="black"></path></g><path id="node_outline_35" fill="none" stroke="none" d="M-5,-12h195a5,5,0,0,1,5,5v15a5,5,0,0,1,-5,5h-195a5,5,0,0,1,-5,-5v-15a5,5,0,0,1,5,-5z"></path><text id="node_text_35" text-rendering="inherit" dy="4.5" fill="white" font-size="12" style="cursor: default;">{{#if xxx }} ..... {{#else xxx }} ..... {{/if}}</text></g><g id="minder_node_2856" transform="matrix( 1 0 0 1 -737 -193 )"><g id="node_expander_35" transform="translate( 0 0 )" style="cursor: pointer;" display="none"><path id="kity_path_3110" fill="white" stroke="gray" d="M5,0A5,5,0,1,1,-5,0A5,5,0,1,1,5,0"></path><path id="kity_path_3111" fill="none" stroke="black"></path></g><path id="node_outline_36" fill="none" stroke="none" d="M-5,-12h235a5,5,0,0,1,5,5v15a5,5,0,0,1,-5,5h-235a5,5,0,0,1,-5,-5v-15a5,5,0,0,1,5,-5z"></path><text id="node_text_36" text-rendering="inherit" dy="4.5" fill="white" font-size="12" style="cursor: text;">&#xa0;{{#unless xxx }} ......&#xa0;{{/unless}}  (判断非值)</text></g><g id="minder_node_2982" transform="matrix( 1 0 0 1 -783 -138 )"><g id="node_expander_36" transform="translate( 0 0 )" style="cursor: pointer;" display="none"><path id="kity_path_3242" fill="white" stroke="gray" d="M5,0A5,5,0,1,1,-5,0A5,5,0,1,1,5,0"></path><path id="kity_path_3243" fill="none" stroke="black"></path></g><path id="node_outline_37" fill="none" stroke="none" d="M-5,-12h281a5,5,0,0,1,5,5v15a5,5,0,0,1,-5,5h-281a5,5,0,0,1,-5,-5v-15a5,5,0,0,1,5,-5z"></path><text id="node_text_37" text-rendering="inherit" dy="4.5" fill="white" font-size="12" style="cursor: default;">{{#with xxx }}  ... {{/with}} (与 JavaScript 的 with 一样)</text></g><g id="minder_node_3213" transform="matrix( 1 0 0 1 -741 -83 )"><g id="node_expander_37" transform="translate( 0 0 )" style="cursor: pointer;" display="none"><path id="kity_path_3479" fill="white" stroke="gray" d="M5,0A5,5,0,1,1,-5,0A5,5,0,1,1,5,0"></path><path id="kity_path_3480" fill="none" stroke="black"></path></g><path id="node_outline_38" fill="none" stroke="none" d="M-5,-12h239a5,5,0,0,1,5,5v15a5,5,0,0,1,-5,5h-239a5,5,0,0,1,-5,-5v-15a5,5,0,0,1,5,-5z"></path><text id="node_text_38" text-rendering="inherit" dy="4.5" fill="white" font-size="12" style="cursor: default;">{{{raw-helper}}} ...不处理...&#xa0;{{{/raw-helper}}}</text></g><g id="minder_node_3809" transform="matrix( 1 0 0 1 -458 111 )"><g id="node_expander_41" transform="translate( -15 0.5 )" style="cursor: pointer;"><path id="kity_path_4110" fill="white" stroke="gray" d="M5,0A5,5,0,1,1,-5,0A5,5,0,1,1,5,0"></path><path id="kity_path_4111" fill="none" stroke="black" d="M-3.5,0L3.5,0"></path></g><path id="node_outline_42" fill="none" stroke="none" d="M-5,-12h101a5,5,0,0,1,5,5v15a5,5,0,0,1,-5,5h-101a5,5,0,0,1,-5,-5v-15a5,5,0,0,1,5,-5z"></path><text id="node_text_42" text-rendering="inherit" dy="4.5" fill="white" font-size="12" style="cursor: default;">Custom Helpers</text></g><g id="minder_node_3922" transform="matrix( 1 0 0 1 -659 0 )"><g id="node_expander_42" transform="translate( -15 0.5 )" style="cursor: pointer;"><path id="kity_path_4229" fill="white" stroke="gray" d="M5,0A5,5,0,1,1,-5,0A5,5,0,1,1,5,0"></path><path id="kity_path_4230" fill="none" stroke="black" d="M-3.5,0L3.5,0"></path></g><path id="node_outline_43" fill="none" stroke="none" d="M-5,-12h151a5,5,0,0,1,5,5v15a5,5,0,0,1,-5,5h-151a5,5,0,0,1,-5,-5v-15a5,5,0,0,1,5,-5z"></path><text id="node_text_43" text-rendering="inherit" dy="4.5" fill="white" font-size="12">Custom Function Helpers</text></g><g id="minder_node_4010" transform="matrix( 1 0 0 1 -1128 -28 )"><g id="node_expander_43" transform="translate( 0 0 )" style="cursor: pointer;" display="none"><path id="kity_path_4323" fill="white" stroke="gray" d="M5,0A5,5,0,1,1,-5,0A5,5,0,1,1,5,0"></path><path id="kity_path_4324" fill="none" stroke="black"></path></g><path id="node_outline_44" fill="none" stroke="none" d="M-5,-12h419a5,5,0,0,1,5,5v15a5,5,0,0,1,-5,5h-419a5,5,0,0,1,-5,-5v-15a5,5,0,0,1,5,-5z"></path><text id="node_text_44" text-rendering="inherit" dy="4.5" fill="white" font-size="12" style="cursor: text;">Handlebars.registerHelper ("axx", function (bxx) { ...... }); (先注册函数 Helper)</text></g><g id="minder_node_4311" transform="matrix( 1 0 0 1 -807 27 )"><g id="node_expander_44" transform="translate( 0 0 )" style="cursor: pointer;" display="none"><path id="kity_path_4630" fill="white" stroke="gray" d="M5,0A5,5,0,1,1,-5,0A5,5,0,1,1,5,0"></path><path id="kity_path_4631" fill="none" stroke="black"></path></g><path id="node_outline_45" fill="none" stroke="none" d="M-5,-12h98a5,5,0,0,1,5,5v15a5,5,0,0,1,-5,5h-98a5,5,0,0,1,-5,-5v-15a5,5,0,0,1,5,-5z"></path><text id="node_text_45" text-rendering="inherit" dy="4.5" fill="white" font-size="12" style="cursor: text;">{{axx bxx}} (使用)</text></g><g id="minder_node_4498" transform="matrix( 1 0 0 1 -642 166 )"><g id="node_expander_45" transform="translate( -15 0.5 )" style="cursor: pointer;"><path id="kity_path_4823" fill="white" stroke="gray" d="M5,0A5,5,0,1,1,-5,0A5,5,0,1,1,5,0"></path><path id="kity_path_4824" fill="none" stroke="black" d="M-3.5,0L3.5,0"></path></g><path id="node_outline_46" fill="none" stroke="none" d="M-5,-12h134a5,5,0,0,1,5,5v15a5,5,0,0,1,-5,5h-134a5,5,0,0,1,-5,-5v-15a5,5,0,0,1,5,-5z"></path><text id="node_text_46" text-rendering="inherit" dy="4.5" fill="white" font-size="12" style="cursor: text;">Custom Block Helpers</text></g><g id="minder_node_4595" transform="matrix( 1 0 0 1 314 -264 )" opacity="1"><path id="kity_path_4928" fill="rgba(0, 0, 0, .25)" stroke="none" d="M-6,-10h52a10,10,0,0,1,10,10v10a10,10,0,0,1,-10,10h-52a10,10,0,0,1,-10,-10v-10a10,10,0,0,1,10,-10z"></path><g id="node_expander_46" transform="translate( 57 0 )" style="cursor: pointer;"><path id="kity_path_4926" fill="white" stroke="gray" d="M5,0A5,5,0,1,1,-5,0A5,5,0,1,1,5,0"></path><path id="kity_path_4927" fill="none" stroke="black" d="M-3.5,0L3.5,0"></path></g><path id="node_outline_47" fill="#a4c5c0" stroke="#a4c5c0" d="M-10,-15h52a10,10,0,0,1,10,10v10a10,10,0,0,1,-10,10h-52a10,10,0,0,1,-10,-10v-10a10,10,0,0,1,10,-10z"></path><text id="node_text_47" text-rendering="inherit" dy="6" fill="#333" font-size="16" style="cursor: default;">使用</text></g><g id="minder_node_4695" transform="matrix( 1 0 0 1 416 -347 )"><g id="node_expander_47" transform="translate( 0 0 )" style="cursor: pointer;" display="none"><path id="kity_path_5033" fill="white" stroke="gray" d="M5,0A5,5,0,1,1,-5,0A5,5,0,1,1,5,0"></path><path id="kity_path_5034" fill="none" stroke="black"></path></g><path id="node_outline_48" fill="none" stroke="none" d="M-5,-12h244a5,5,0,0,1,5,5v15a5,5,0,0,1,-5,5h-244a5,5,0,0,1,-5,-5v-15a5,5,0,0,1,5,-5z"></path><text id="node_text_48" text-rendering="inherit" dy="4.5" fill="white" font-size="12" style="cursor: text;">1. var a = Handlebars.compil("html string");</text></g><g id="minder_node_4974" transform="matrix( 1 0 0 1 416 -292 )" opacity="1"><g id="node_expander_49" transform="translate( 0 0 )" style="cursor: pointer;" display="none"><path id="kity_path_5324" fill="white" stroke="gray" d="M5,0A5,5,0,1,1,-5,0A5,5,0,1,1,5,0"></path><path id="kity_path_5325" fill="none" stroke="black"></path></g><path id="node_outline_50" fill="none" stroke="none" d="M-5,-12h132a5,5,0,0,1,5,5v15a5,5,0,0,1,-5,5h-132a5,5,0,0,1,-5,-5v-15a5,5,0,0,1,5,-5z"></path><text id="node_text_50" text-rendering="inherit" dy="4.5" fill="white" font-size="12" style="cursor: default;">2. var dataObject = ......</text></g><g id="minder_node_4798" transform="matrix( 1 0 0 1 416 -237 )"><g id="node_expander_48" transform="translate( 0 0 )" style="cursor: pointer;" display="none"><path id="kity_path_5142" fill="white" stroke="gray" d="M5,0A5,5,0,1,1,-5,0A5,5,0,1,1,5,0"></path><path id="kity_path_5143" fill="none" stroke="black"></path></g><path id="node_outline_49" fill="none" stroke="none" d="M-5,-12h146a5,5,0,0,1,5,5v15a5,5,0,0,1,-5,5h-146a5,5,0,0,1,-5,-5v-15a5,5,0,0,1,5,-5z"></path><text id="node_text_49" text-rendering="inherit" dy="4.5" fill="white" font-size="12" style="cursor: text;">3. var str = a(dataObject);</text></g><g id="minder_node_5155" transform="matrix( 1 0 0 1 416 -182 )"><g id="node_expander_50" transform="translate( 0 0 )" style="cursor: pointer;" display="none"><path id="kity_path_5511" fill="white" stroke="gray" d="M5,0A5,5,0,1,1,-5,0A5,5,0,1,1,5,0"></path><path id="kity_path_5512" fill="none" stroke="black"></path></g><path id="node_outline_51" fill="none" stroke="none" d="M-5,-12h161a5,5,0,0,1,5,5v15a5,5,0,0,1,-5,5h-161a5,5,0,0,1,-5,-5v-15a5,5,0,0,1,5,-5z"></path><text id="node_text_51" text-rendering="inherit" dy="4.5" fill="white" font-size="12" style="cursor: default;" opacity="1">4. $(domelem).append(str);</text></g><g id="minder_node_6159" transform="matrix( 1 0 0 1 -1009 249 )" opacity="1"><g id="node_expander_52" transform="translate( -15 0.5 )" style="cursor: pointer;"><path id="kity_path_6535" fill="white" stroke="gray" d="M5,0A5,5,0,1,1,-5,0A5,5,0,1,1,5,0"></path><path id="kity_path_6536" fill="none" stroke="black" d="M-3.5,0L3.5,0"></path></g><path id="node_outline_53" fill="none" stroke="none" d="M-5,-12h82a5,5,0,0,1,5,5v15a5,5,0,0,1,-5,5h-82a5,5,0,0,1,-5,-5v-15a5,5,0,0,1,5,-5z"></path><text id="node_text_53" text-rendering="inherit" dy="4.5" fill="white" font-size="12" style="cursor: default;">options.hash</text></g><g id="minder_node_6277" transform="matrix( 1 0 0 1 -1073 82 )"><g id="node_expander_53" transform="translate( -15 0.5 )" style="cursor: pointer;" display="none"><path id="kity_path_6659" fill="white" stroke="gray" d="M5,0A5,5,0,1,1,-5,0A5,5,0,1,1,5,0"></path><path id="kity_path_6660" fill="none" stroke="black" d="M-3.5,0L3.5,0"></path></g><path id="node_outline_54" fill="none" stroke="none" d="M-5,-12h381a5,5,0,0,1,5,5v15a5,5,0,0,1,-5,5h-381a5,5,0,0,1,-5,-5v-15a5,5,0,0,1,5,-5z"></path><text id="node_text_54" text-rendering="inherit" dy="4.5" fill="white" font-size="12" style="cursor: text;">Handlebars.registerHelper ("a", function (dataObject, options) {......});</text></g><g id="minder_node_6478" transform="matrix( 1 0 0 1 -877 194 )"><g id="node_expander_54" transform="translate( -15 0.5 )" style="cursor: pointer;"><path id="kity_path_6866" fill="white" stroke="gray" d="M5,0A5,5,0,1,1,-5,0A5,5,0,1,1,5,0"></path><path id="kity_path_6867" fill="none" stroke="black" d="M-3.5,0L3.5,0"></path></g><path id="node_outline_55" fill="none" stroke="none" d="M-5,-12h185a5,5,0,0,1,5,5v15a5,5,0,0,1,-5,5h-185a5,5,0,0,1,-5,-5v-15a5,5,0,0,1,5,-5z"></path><text id="node_text_55" text-rendering="inherit" dy="4.5" fill="white" font-size="12">options 为 Handlebars 自动添加</text></g><g id="minder_node_6044" transform="matrix( 1 0 0 1 -999 138 )" opacity="1"><g id="node_expander_51" transform="translate( -15 0.5 )" style="cursor: pointer;"><path id="kity_path_6414" fill="white" stroke="gray" d="M5,0A5,5,0,1,1,-5,0A5,5,0,1,1,5,0"></path><path id="kity_path_6415" fill="none" stroke="black" d="M-3.5,0L3.5,0"></path></g><path id="node_outline_52" fill="none" stroke="none" d="M-5,-12h72a5,5,0,0,1,5,5v15a5,5,0,0,1,-5,5h-72a5,5,0,0,1,-5,-5v-15a5,5,0,0,1,5,-5z"></path><text id="node_text_52" text-rendering="inherit" dy="4.5" fill="white" font-size="12" style="cursor: text;">options.fn()</text></g><g id="minder_node_6977" transform="matrix( 1 0 0 1 -1271 138 )"><g id="node_expander_56" transform="translate( 0 0 )" style="cursor: pointer;" display="none"><path id="kity_path_7377" fill="white" stroke="gray" d="M5,0A5,5,0,1,1,-5,0A5,5,0,1,1,5,0"></path><path id="kity_path_7378" fill="none" stroke="black"></path></g><path id="node_outline_57" fill="none" stroke="none" d="M-5,-12h222a5,5,0,0,1,5,5v15a5,5,0,0,1,-5,5h-222a5,5,0,0,1,-5,-5v-15a5,5,0,0,1,5,-5z"></path><text id="node_text_57" text-rendering="inherit" dy="4.5" fill="white" font-size="12" style="cursor: text;" opacity="1">为模板填充数据，与“使用”的第三步一样</text></g><g id="minder_node_6766" transform="matrix( 1 0 0 1 -1029 194 )" opacity="1"><g id="node_expander_55" transform="translate( -15 0.5 )" style="cursor: pointer;"><path id="kity_path_7160" fill="white" stroke="gray" d="M5,0A5,5,0,1,1,-5,0A5,5,0,1,1,5,0"></path><path id="kity_path_7161" fill="none" stroke="black" d="M-3.5,0L3.5,0"></path></g><path id="node_outline_56" fill="none" stroke="none" d="M-5,-12h102a5,5,0,0,1,5,5v15a5,5,0,0,1,-5,5h-102a5,5,0,0,1,-5,-5v-15a5,5,0,0,1,5,-5z"></path><text id="node_text_56" text-rendering="inherit" dy="4.5" fill="white" font-size="12" style="cursor: text;">options.inverse()</text></g><g id="minder_node_7193" transform="matrix( 1 0 0 1 -1313 194 )"><g id="node_expander_57" transform="translate( 0 0 )" style="cursor: pointer;" display="none"><path id="kity_path_7599" fill="white" stroke="gray" d="M5,0A5,5,0,1,1,-5,0A5,5,0,1,1,5,0"></path><path id="kity_path_7600" fill="none" stroke="black"></path></g><path id="node_outline_58" fill="none" stroke="none" d="M-5,-12h234a5,5,0,0,1,5,5v15a5,5,0,0,1,-5,5h-234a5,5,0,0,1,-5,-5v-15a5,5,0,0,1,5,-5z"></path><text id="node_text_58" text-rendering="inherit" dy="4.5" fill="white" font-size="12" style="cursor: text;" opacity="1">在非值情况下才填充模板（else, unless）</text></g><g id="minder_node_7414" transform="matrix( 1 0 0 1 -1249 249 )"><g id="node_expander_58" transform="translate( 0 0 )" style="cursor: pointer;" display="none"><path id="kity_path_7826" fill="white" stroke="gray" d="M5,0A5,5,0,1,1,-5,0A5,5,0,1,1,5,0"></path><path id="kity_path_7827" fill="none" stroke="black"></path></g><path id="node_outline_59" fill="none" stroke="none" d="M-5,-12h190a5,5,0,0,1,5,5v15a5,5,0,0,1,-5,5h-190a5,5,0,0,1,-5,-5v-15a5,5,0,0,1,5,-5z"></path><text id="node_text_59" text-rendering="inherit" dy="4.5" fill="white" font-size="12" style="cursor: text;">传进来的对象键值对的字符串表示</text></g><g id="minder_node_7550" transform="matrix( 1 0 0 1 -309 561 )"><path id="kity_path_7970" fill="rgba(0, 0, 0, .25)" stroke="none" d="M-6,-10h164a10,10,0,0,1,10,10v10a10,10,0,0,1,-10,10h-164a10,10,0,0,1,-10,-10v-10a10,10,0,0,1,10,-10z"></path><g id="node_expander_59" transform="translate( -25 0 )" style="cursor: pointer;"><path id="kity_path_7968" fill="white" stroke="gray" d="M5,0A5,5,0,1,1,-5,0A5,5,0,1,1,5,0"></path><path id="kity_path_7969" fill="none" stroke="black" d="M-3.5,0L3.5,0"></path></g><path id="node_outline_60" fill="#a4c5c0" stroke="#a4c5c0" d="M-10,-15h164a10,10,0,0,1,10,10v10a10,10,0,0,1,-10,10h-164a10,10,0,0,1,-10,-10v-10a10,10,0,0,1,10,-10z"></path><text id="node_text_60" text-rendering="inherit" dy="6" fill="#333" font-size="16">加载模板的四种方法</text></g><g id="minder_node_7689" transform="matrix( 1 0 0 1 -682 341 )"><g id="node_expander_60" transform="translate( -15 0.5 )" style="cursor: pointer;"><path id="kity_path_8114" fill="white" stroke="gray" d="M5,0A5,5,0,1,1,-5,0A5,5,0,1,1,5,0"></path><path id="kity_path_8115" fill="none" stroke="black" d="M-3.5,0L3.5,0"></path></g><path id="node_outline_61" fill="none" stroke="none" d="M-5,-12h313a5,5,0,0,1,5,5v15a5,5,0,0,1,-5,5h-313a5,5,0,0,1,-5,-5v-15a5,5,0,0,1,5,-5z"></path><text id="node_text_61" text-rendering="inherit" dy="4.5" fill="white" font-size="12" style="cursor: text;">&lt;script type="x-handlebars-template"&gt; ...模板... &lt;/script&gt;</text></g><g id="minder_node_7878" transform="matrix( 1 0 0 1 -766 313 )"><g id="node_expander_61" transform="translate( 0 0 )" style="cursor: pointer;" display="none"><path id="kity_path_8309" fill="white" stroke="gray" d="M5,0A5,5,0,1,1,-5,0A5,5,0,1,1,5,0"></path><path id="kity_path_8310" fill="none" stroke="black"></path></g><path id="node_outline_62" fill="none" stroke="none" d="M-5,-12h34a5,5,0,0,1,5,5v15a5,5,0,0,1,-5,5h-34a5,5,0,0,1,-5,-5v-15a5,5,0,0,1,5,-5z"></path><text id="node_text_62" text-rendering="inherit" dy="4.5" fill="white" font-size="12" style="cursor: default;">方便</text></g><g id="minder_node_8023" transform="matrix( 1 0 0 1 -985 368 )"><g id="node_expander_62" transform="translate( 0 0 )" style="cursor: pointer;" display="none"><path id="kity_path_8460" fill="white" stroke="gray" d="M5,0A5,5,0,1,1,-5,0A5,5,0,1,1,5,0"></path><path id="kity_path_8461" fill="none" stroke="black"></path></g><path id="node_outline_63" fill="none" stroke="none" d="M-5,-12h253a5,5,0,0,1,5,5v15a5,5,0,0,1,-5,5h-253a5,5,0,0,1,-5,-5v-15a5,5,0,0,1,5,-5z"></path><text id="node_text_63" text-rendering="inherit" dy="4.5" fill="white" font-size="12" style="cursor: text;">灵活度不高、难以管理、常驻DOM、内存浪费</text></g><g id="minder_node_8220" transform="matrix( 1 0 0 1 -841 506 )"><g id="node_expander_63" transform="translate( -15 0.5 )" style="cursor: pointer;"><path id="kity_path_8663" fill="white" stroke="gray" d="M5,0A5,5,0,1,1,-5,0A5,5,0,1,1,5,0"></path><path id="kity_path_8664" fill="none" stroke="black" d="M-3.5,0L3.5,0"></path></g><path id="node_outline_64" fill="none" stroke="none" d="M-5,-12h472a5,5,0,0,1,5,5v15a5,5,0,0,1,-5,5h-472a5,5,0,0,1,-5,-5v-15a5,5,0,0,1,5,-5z"></path><text id="node_text_64" text-rendering="inherit" dy="4.5" fill="white" font-size="12" opacity="1" style="cursor: default;">每个模板作为一个 html 文件，自定义一个工厂函数去请求、处理，只维护一个模板对象</text></g><g id="minder_node_8571" transform="matrix( 1 0 0 1 -949 423 )"><g id="node_expander_64" transform="translate( 0 0 )" style="cursor: pointer;" display="none"><path id="kity_path_9020" fill="white" stroke="gray" d="M5,0A5,5,0,1,1,-5,0A5,5,0,1,1,5,0"></path><path id="kity_path_9021" fill="none" stroke="black"></path></g><path id="node_outline_65" fill="none" stroke="none" d="M-5,-12h58a5,5,0,0,1,5,5v15a5,5,0,0,1,-5,5h-58a5,5,0,0,1,-5,-5v-15a5,5,0,0,1,5,-5z"></path><text id="node_text_65" text-rendering="inherit" dy="4.5" fill="white" font-size="12" style="cursor: default;">灵活方便</text></g><g id="minder_node_8725" transform="matrix( 1 0 0 1 -949 478 )"><g id="node_expander_65" transform="translate( 0 0 )" style="cursor: pointer;" display="none"><path id="kity_path_9180" fill="white" stroke="gray" d="M5,0A5,5,0,1,1,-5,0A5,5,0,1,1,5,0"></path><path id="kity_path_9181" fill="none" stroke="black"></path></g><path id="node_outline_66" fill="none" stroke="none" d="M-5,-12h58a5,5,0,0,1,5,5v15a5,5,0,0,1,-5,5h-58a5,5,0,0,1,-5,-5v-15a5,5,0,0,1,5,-5z"></path><text id="node_text_66" text-rendering="inherit" dy="4.5" fill="white" font-size="12">容易管理</text></g><g id="minder_node_8882" transform="matrix( 1 0 0 1 -1320 588 )"><g id="node_expander_66" transform="translate( 0 0 )" style="cursor: pointer;" display="none"><path id="kity_path_9343" fill="white" stroke="gray" d="M5,0A5,5,0,1,1,-5,0A5,5,0,1,1,5,0"></path><path id="kity_path_9344" fill="none" stroke="black"></path></g><path id="node_outline_67" fill="none" stroke="none" d="M-5,-12h429a5,5,0,0,1,5,5v15a5,5,0,0,1,-5,5h-429a5,5,0,0,1,-5,-5v-15a5,5,0,0,1,5,-5z"></path><text id="node_text_67" text-rendering="inherit" dy="4.5" fill="white" font-size="12">http://stackoverflow.com/questions/8366733/external-template-in-underscore</text></g><g id="minder_node_9678" transform="matrix( 1 0 0 1 -985 533 )" opacity="1"><g id="node_expander_67" transform="translate( 0 0 )" style="cursor: pointer;" display="none"><path id="kity_path_10145" fill="white" stroke="gray" d="M5,0A5,5,0,1,1,-5,0A5,5,0,1,1,5,0"></path><path id="kity_path_10146" fill="none" stroke="black"></path></g><path id="node_outline_68" fill="none" stroke="none" d="M-5,-12h94a5,5,0,0,1,5,5v15a5,5,0,0,1,-5,5h-94a5,5,0,0,1,-5,-5v-15a5,5,0,0,1,5,-5z"></path><text id="node_text_68" text-rendering="inherit" dy="4.5" fill="white" font-size="12" style="cursor: default;">函数很容易实现</text></g><g id="kity_g_7" display="none"><path id="kity_path_8" fill="none" stroke="yellow" d="M-1325,576h429a5,5,0,0,1,5,5v15a5,5,0,0,1,-5,5h-429a5,5,0,0,1,-5,-5v-15a5,5,0,0,1,5,-5z" stroke-width="2"></path></g><g id="minder_node_9949" transform="matrix( 1 0 0 1 -491 671 )"><g id="node_expander_68" transform="translate( -15 0.5 )" style="cursor: pointer;"><path id="kity_path_10422" fill="white" stroke="gray" d="M5,0A5,5,0,1,1,-5,0A5,5,0,1,1,5,0"></path><path id="kity_path_10423" fill="none" stroke="black" d="M-3.5,0L3.5,0"></path></g><path id="node_outline_69" fill="none" stroke="none" d="M-5,-12h122a5,5,0,0,1,5,5v15a5,5,0,0,1,-5,5h-122a5,5,0,0,1,-5,-5v-15a5,5,0,0,1,5,-5z"></path><text id="node_text_69" text-rendering="inherit" dy="4.5" fill="white" font-size="12" style="cursor: text;">Require.js AMD 调用</text></g><g id="minder_node_10115" transform="matrix( 1 0 0 1 -741 643 )"><g id="node_expander_69" transform="translate( 0 0 )" style="cursor: pointer;" display="none"><path id="kity_path_10594" fill="white" stroke="gray" d="M5,0A5,5,0,1,1,-5,0A5,5,0,1,1,5,0"></path><path id="kity_path_10595" fill="none" stroke="black"></path></g><path id="node_outline_70" fill="none" stroke="none" d="M-5,-12h200a5,5,0,0,1,5,5v15a5,5,0,0,1,-5,5h-200a5,5,0,0,1,-5,-5v-15a5,5,0,0,1,5,-5z"></path><text id="node_text_70" text-rendering="inherit" dy="4.5" fill="white" font-size="12" style="cursor: text;">可以使用 AMD 和 Require.js 的优势</text></g><g id="minder_node_10396" transform="matrix( 1 0 0 1 -635 698 )"><g id="node_expander_70" transform="translate( 0 0 )" style="cursor: pointer;" display="none"><path id="kity_path_10881" fill="white" stroke="gray" d="M5,0A5,5,0,1,1,-5,0A5,5,0,1,1,5,0"></path><path id="kity_path_10882" fill="none" stroke="black"></path></g><path id="node_outline_71" fill="none" stroke="none" d="M-5,-12h94a5,5,0,0,1,5,5v15a5,5,0,0,1,-5,5h-94a5,5,0,0,1,-5,-5v-15a5,5,0,0,1,5,-5z"></path><text id="node_text_71" text-rendering="inherit" dy="4.5" fill="white" font-size="12">新手要学习规范</text></g><g id="minder_node_10568" transform="matrix( 1 0 0 1 -626 781 )"><g id="node_expander_71" transform="translate( -15 0.5 )" style="cursor: pointer;"><path id="kity_path_11059" fill="white" stroke="gray" d="M5,0A5,5,0,1,1,-5,0A5,5,0,1,1,5,0"></path><path id="kity_path_11060" fill="none" stroke="black" d="M-3.5,0L3.5,0"></path></g><path id="node_outline_72" fill="none" stroke="none" d="M-5,-12h257a5,5,0,0,1,5,5v15a5,5,0,0,1,-5,5h-257a5,5,0,0,1,-5,-5v-15a5,5,0,0,1,5,-5z"></path><text id="node_text_72" text-rendering="inherit" dy="4.5" fill="white" font-size="12" style="cursor: text;">服务器端预编译（Node.js），客户端填充模板</text></g><g id="minder_node_10743" transform="matrix( 1 0 0 1 -866 753 )"><g id="node_expander_72" transform="translate( 0 0 )" style="cursor: pointer;" display="none"><path id="kity_path_11240" fill="white" stroke="gray" d="M5,0A5,5,0,1,1,-5,0A5,5,0,1,1,5,0"></path><path id="kity_path_11241" fill="none" stroke="black"></path></g><path id="node_outline_73" fill="none" stroke="none" d="M-5,-12h190a5,5,0,0,1,5,5v15a5,5,0,0,1,-5,5h-190a5,5,0,0,1,-5,-5v-15a5,5,0,0,1,5,-5z"></path><text id="node_text_73" text-rendering="inherit" dy="4.5" fill="white" font-size="12" style="cursor: default;" opacity="1">减少了客户端的压力，加快了速度</text></g><g id="minder_node_10980" transform="matrix( 1 0 0 1 -734 808 )"><g id="node_expander_73" transform="translate( 0 0 )" style="cursor: pointer;" display="none"><path id="kity_path_11483" fill="white" stroke="gray" d="M5,0A5,5,0,1,1,-5,0A5,5,0,1,1,5,0"></path><path id="kity_path_11484" fill="none" stroke="black"></path></g><path id="node_outline_74" fill="none" stroke="none" d="M-5,-12h58a5,5,0,0,1,5,5v15a5,5,0,0,1,-5,5h-58a5,5,0,0,1,-5,-5v-15a5,5,0,0,1,5,-5z"></path><text id="node_text_74" text-rendering="inherit" dy="4.5" fill="white" font-size="12">修改麻烦</text></g></g></g></svg>