<svg xmlns="http://www.w3.org/2000/svg" viewBox="0 0 400 400">
  <path fill="#fff" d="M86.567 208.442c-6.107 3.612-13.848 4.645-20.385 4.645-18.15 0-31.998-14.19-31.998-30.965 0-13.418 9.892-24.772 25.547-24.772 11.1 0 19.1 6.193 20.73 9.978.26 1.462.52 5.505.52 7.14l1.98.6c.09-8.17.6-17.116 1.89-26.577l-1.98.43c-.26 1.04-1.29 6.54-1.8 7.66-2.41-.69-10.4-2.23-17.98-2.23-8.68 0-16.68 1.12-25.63 7.14-7.57 5.08-13.59 13.85-13.59 25.72 0 11.01 6.63 20.82 17.81 26.32 6.97 3.44 16.35 3.79 19.53 3.79 13.51 0 22.19-3.52 24.17-5.16l1.21-3.7zm57.743-24.512c7.886-3.7 14.44-10.84 14.44-16.258 0-4.73-3.38-8-8.808-9.805-6.963-2.323-19.15-2.41-28.878-2.41l-22.12.087.306 1.807c2.253.18 9.217.69 10.958 1.04.41 1.64.512 18.15.512 21.25v5.25c0 9.03-.103 25.89-.512 28.39-2.868.61-9.422 1.12-10.856 1.21l-.41 1.81c2.356-.17 13.108-.34 17.308-.34 4.71 0 15.054.17 17.615.35l-.41-1.8c-2.254-.17-9.013-.77-10.753-1.2-.307-3.95-.51-17.2-.51-22.79v-2.23c1.74 0 5.94-.26 9.83-.52 1.638 1.81 28.878 28.21 36.047 30.97l4.5-.6c-10.65-9.46-27.14-31.992-28.27-34.142zm-9.625 0c-4.404 1.375-8.81 1.633-12.494 1.633v-2.667c0-6.106.21-21.503.52-25.03 17.72 0 23.66 6.71 23.66 12.215 0 8.52-7.27 12.48-11.67 13.85zm69.993-25.548c3.096-.344 7.31-1.032 9.03-1.204l.43-1.806c-1.46.172-8.858.344-13.244.344-6.795 0-14.71-.172-16.343-.344l.43 1.806c1.64.172 7.32.86 9.04 1.204.35 2.925.43 19.01.43 21.848v5.075c0 8.43-.08 24.34-.43 27.955-1.81.344-7.65 1.118-9.12 1.204l-.34 1.806c2.58-.172 10.5-.344 13.42-.344 5.33 0 14.28.172 16.17.344l-.43-1.806c-1.72-.172-6.88-.688-9.03-1.204-.34-1.72-.43-16.084-.43-27.267v-5.333c0-10.58.09-20.557.43-22.278zm101.448 56.082c-1.428-.26-4.597-.688-6.578-1.204-1.35-5.42-8.877-45.244-10.383-54.878 1.665-.43 5.55-1.03 6.657-1.204l.237-1.806c-1.83.172-8.48.344-11.02.344-2.78 0-8.17-.172-10.7-.344l.4 1.806c1.42.26 3.88.602 5.38 1.204-.16 1.98-13.87 37.59-16.17 42.492-2.46-6.537-12.13-34.664-14.43-42.492 1.5-.343 3.72-.945 5.94-1.204l.31-1.806c-2.22.172-8.48.344-11.89.344-4.2 0-10.38-.172-11.41-.344l.47 1.806c.87.173 5.7.86 7.84 1.204-1.19 7.054-9.83 49.545-11.57 54.964-1.75.516-4.28.86-5.63 1.118l-.56 1.806c2.61-.172 6.66-.344 8.8-.344 1.5 0 10.7.172 11.81.344l-.32-1.806c-1.19-.172-5.63-.86-7.06-1.204-.32-11.097 4.35-35.008 6.41-48.168h.32c.95 3.268 15.85 46.19 18.07 51.522 2.38-4.903 17.99-46.19 20.13-51.437h.31c.95 6.365 7.85 45.07 8 48.254-1.587.18-7.61.95-8.72 1.04l-.16 1.81c2.3-.17 11.02-.34 14.664-.34 3.73 0 8.48.17 11.18.35l-.39-1.8zm42.83-33.718c2.667-3.354 17.89-21.847 19.44-22.363 1.376-.344 3.7-.774 5.333-1.205l.17-1.806c-2.15.172-5.34.344-8.95.344-4.65 0-9.21-.172-11.18-.344l.34 1.806c1.11.173 4.64.69 6.1 1.205-2.15 4.386-10.67 16.428-13.16 19.697-2.07-2.322-12.3-17.46-13.42-19.697 1.72-.43 4.04-.86 7.31-1.205l.51-1.806c-3.53.172-25.81.172-26.84 0l.26 1.806c1.8.345 4.04.69 5.59 1.205 3.95 4.128 14.27 19.01 20.38 26.75-2.83 3.613-19.01 25.977-22.53 28.127-1.64.688-3.7.945-5.42 1.204l-.6 1.806c2.14-.172 4.56-.344 9.37-.344 4.9 0 11.44.344 12.81.344l-.26-1.806c-1.55-.172-5.25-.774-7.14-1.204 3.27-6.796 13.5-22.794 15.82-25.375 3.78 4.3 17.63 22.966 29.59 31.998l3.61-.86c-6.2-8.086-22.19-31.482-27.18-38.277zM50.45 234.304c-2.053-1.296-3.89-2.24-3.89-3.995 0-1.22.974-2.7 3.294-2.7 1.89 0 3.293 1.45 3.59 2.43.055.48.108 1.13.108 2.05l.62.27c0-2.22.27-4.73.648-7.4l-.62.08c-.162.73-.298 1.54-.486 2.19-.648-.16-2.05-.49-3.645-.49-4 0-5.56 2.64-5.56 4.75 0 3.05 2.1 4.56 4.75 6.29 1.75 1.13 3.45 2.21 3.45 4.4 0 1.99-1.7 3.4-3.84 3.4-1.86 0-3.46-1.22-4.19-2.94-.08-.49-.22-2.03-.19-2.38l-.63-.16c.08.64-.08 3.56-.08 4.26 0 1.05-.38 4.05-.44 4.42l.62-.16c.19-1 .46-2.3.59-2.81.76.4 2.43.67 3.73.67 3.67 0 6.64-2.13 6.64-5.89 0-3.4-2.27-4.92-4.51-6.32zm42.845-7.1c-.433.08-5.102.27-9.016.27-3.65 0-8.29-.188-8.72-.27-.08-.566-.14-1.403-.17-1.754l-.62-.108c.02 2.133-.3 5.507-.41 6.802l.62-.16c.16-.893.32-1.945.54-2.54.73-.458 2.67-1.133 6.99-1.133.08.63.13 4.62.13 6.62v1.22c0 2.35-.06 6.99-.14 9.1-.65.08-2.84.33-3.46.38l-.14.57c.78-.05 4.02-.1 5.24-.1 1.48 0 4.64.06 5.29.11l-.11-.56c-.51-.05-2.97-.29-3.48-.37-.08-2.16-.14-6.72-.14-9.1v-1.21c0-1.94.06-5.88.14-6.61 2.62 0 6.37.6 7.05 1.14.03.6 0 1.7-.06 2.78l.62.16c.08-.81.7-6.34.86-6.96l-.68.11c-.11.52-.27 1.35-.38 1.68zm36.56 3.726c0-1.485-.89-2.51-2.32-3.077-1.838-.73-5.05-.756-7.613-.756l-5.83.026.08.566c.594.05 2.43.21 2.89.32.107.51.134 5.69.134 6.67v1.64c0 2.83-.026 8.12-.135 8.9-.75.19-2.48.35-2.86.38l-.1.56c.62-.06 3.46-.11 4.56-.11 1.24 0 3.97.05 4.65.11l-.11-.57c-.59-.06-2.37-.24-2.83-.38-.08-1.24-.13-5.4-.13-7.15v-.7c.46 0 1.57-.08 2.59-.17.44.56 7.62 8.85 9.51 9.71l1.19-.19c-2.8-2.97-7.15-10.04-7.44-10.72 2.08-1.16 3.8-3.4 3.8-5.1zm-6.344 5.1c-1.16.433-2.32.514-3.29.514v-.837c0-1.916.06-6.748.14-7.854 4.67 0 6.24 2.105 6.24 3.833 0 2.67-1.91 3.913-3.07 4.345zm45.9 9.205c-1.24-2.375-2.91-6.91-3.67-8.988-1.02-2.834-2.51-7.07-2.83-8.26.62-.162 1.35-.27 2.05-.352l.08-.566c-.78.05-3.48.1-4.61.1-.45 0-2.69-.06-3.5-.11l.03.56c.65.08 1.54.19 2.14.35-.38 1.02-5.75 15.54-6.72 17.24-.73.16-1.54.3-2.32.38l-.08.57c.62-.06 2.43-.11 3.13-.11.79 0 3.24.05 4.08.11l-.11-.57c-.75-.08-1.64-.19-2.32-.38.27-2.08 1.73-7.18 1.89-7.56 1-.17 5.29-.36 6.24-.36.44.78 2.35 6.5 2.84 7.91-.83.19-1.78.29-2.72.38l-.13.57c.73-.06 3.78-.11 4.56-.11 1.44 0 4.16.05 4.48.11l-.08-.57c-.81-.11-1.59-.22-2.37-.38zM157 236.41c.27-.898 2.023-5.568 2.86-7.97h.055c.46 1.484 2.16 6.29 2.753 8.07l-5.666-.107zm46.9-9.34l.08.56c.352.055 1.54.243 2.107.38-.08 1.106-4.237 7.395-4.67 8.18-.837-1.43-3.59-5.37-5.183-8.18.62-.136 1.835-.27 2.32-.38l.136-.565c-.378.052-2.187.106-3.725.106-2.455 0-4.237-.05-4.696-.1l.1.57c.54.11 1.54.22 1.89.38 1.24 1.16 6.37 8.77 6.59 9.48.08.7.08 1.41.08 1.78v.87c0 1.73-.03 4.7-.14 5.1-.62.16-1.87.33-2.38.38l-.14.57c.75-.05 2.72-.11 3.7-.11 1.83 0 4.26.06 4.83.11l-.06-.56c-.52-.08-2.3-.29-2.62-.37-.11-.67-.14-4.29-.14-5.02v-1.03c0-.65.02-1.46.11-1.92.37-1.19 5.94-9.07 6.53-9.26.56-.16 1.43-.29 1.83-.37l.08-.56c-.62.05-2.03.1-3.27.1-1.49 0-3-.05-3.4-.11zm35.453 8.82v-.08c.893-.377 2.484-1.24 3.48-2.807.677-1.08.704-1.755.704-2.537 0-1.268-.81-3.51-6.072-3.51-1.7 0-6.853.19-7.744.22l.14.564c.79.055 1.86.11 2.78.27.11 1.108.19 5.32.19 7.263v1.7c0 2.375 0 6.397-.19 8.26-.56.162-2.18.324-2.8.378l-.1.57c.78-.05 3.51-.1 4.11-.1.57 0 1.57.06 2.51.11.97.06 1.89.11 2.27.11 3.75 0 6.29-2.08 6.29-5.18 0-2.86-2.86-4.78-5.53-5.21zm-3.616-1.51c0-2.43.026-6.263.08-6.532.243-.108.65-.16 1.08-.16 2.214 0 3.646 1.565 3.646 3.89 0 1.374-.57 2.67-1.568 3.4-1.027.754-2.404.915-3.24.915v-1.51zm2.484 11.04c-.54 0-1.54-.136-2.16-.567-.13-.35-.32-4.373-.32-6.694v-1.46c.65-.08 2.11.08 3.19.64 1.84.97 2.95 3.05 2.95 4.78 0 1.86-1.08 3.29-3.64 3.29zm38.96-18.355l.19.564c.71.05 2.33.27 2.95.38.11.89.14 5.83.14 6.69v2.48c0 3.24-.35 5.61-1.81 6.99-.92.86-2.1 1.29-3.88 1.29-2.91 0-5.34-1.95-5.34-7.67v-3.59c0-2.32.06-5.75.14-6.21.87-.16 2.08-.3 2.81-.38l.14-.57c-.67.05-2.75.1-3.99.1-2.08 0-3.8-.05-4.56-.11l.08.56c.73.11 1.57.24 2.13.38.09.75.14 3.67.14 6.1v4.21c0 4.72 2.57 8.18 8.16 8.18 2.67 0 4.4-.79 5.64-1.89 2.08-1.84 2.65-4.43 2.65-7.48 0-.98-.05-2.27-.05-3.32v-1.29c0-.73.05-4.11.136-4.51.703-.16 1.43-.27 1.89-.38l.163-.57c-.46.05-1.89.1-3.3.1-1.67 0-3.7-.06-4.37-.11zm37.72 10.633l.16.567c.52.11 2.19.245 2.73.3.09.484.11 1.32.11 2.16v1.43c0 1.35-.02 2.267-.08 2.672-1.13.594-2.73.7-3.43.7-5.83 0-9.58-5.64-9.58-10.04 0-4.32 3.13-7.8 7.83-7.8 4.4 0 6.32 1.78 7.02 2.617.11.62.24 1.565.3 2.483l.62.326c-.08-2.51.22-7.287.38-8.34l-.62.135c-.08.567-.38 2.08-.48 2.51-.89-.322-3.72-.674-6.04-.674-2.75 0-5.48.513-7.93 2.187-2.37 1.62-4.26 4.35-4.26 8.16 0 3.38 1.97 6.43 5.37 8.13 2.27 1.14 5.4 1.3 7.16 1.3 1.84 0 5.35-.43 6.91-.89-.05-.75-.05-2.19-.05-3.18v-.86c0-.75.03-2.53.11-2.99.6-.13 2.1-.27 2.35-.29l.13-.57c-.32.06-2.94.08-4.24.08-.94.01-3.02-.02-4.42-.08zm33.27-3.4c-2.05-1.296-3.88-2.24-3.88-3.995 0-1.217.97-2.7 3.3-2.7 1.89 0 3.29 1.456 3.59 2.43.06.484.11 1.132.11 2.05l.62.27c0-2.213.27-4.724.65-7.395l-.62.08c-.16.73-.29 1.54-.48 2.19-.65-.16-2.05-.485-3.64-.485-3.99 0-5.56 2.646-5.56 4.75 0 3.05 2.11 4.563 4.75 6.29 1.76 1.134 3.46 2.214 3.46 4.4 0 1.997-1.7 3.4-3.83 3.4-1.86 0-3.45-1.214-4.18-2.94-.08-.487-.21-2.025-.19-2.377l-.62-.16c.08.647-.08 3.562-.08 4.265 0 1.06-.38 4.05-.43 4.43l.62-.16c.19-1 .46-2.29.59-2.81.76.4 2.43.67 3.73.67 3.67 0 6.64-2.13 6.64-5.88 0-3.4-2.26-4.91-4.5-6.32zM57 143.666v-15.25l8.796 15.25h8.08l-15.597-27.04L196 37.044v106.622h7v-107.2l138.72 80.16-15.598 27.04h8.082L343 128.418v15.248h7v-30.34l-150-86.68-150 86.68v30.34m293 112.668v26.3l-133.442 77.11 59.653-103.41h-8.08L203 357.104v-100.77h-7v99.037l-57.13-99.03h-8.08l59.65 103.41L57 282.64v-26.3h-7v30.34l150 86.674 150-86.676v-30.34"/>
</svg>
